<svg xmlns="http://www.w3.org/2000/svg" width="136.09" height="106.617" viewBox="0 0 136.09 106.617">
  <g id="Group_283" data-name="Group 283" transform="translate(-4840.28 -951.88)">
    <path id="Path_348" data-name="Path 348" d="M701.761,104.22h-.295l-1.488,1.143-1.783.568-2.38.568-2.674.568-6.24.568h12.783l.891-1.136.59-1.136.6-.568Z" transform="translate(4274.609 918.016)" fill="#4b82c2" fill-rule="evenodd"/>
    <path id="Path_349" data-name="Path 349" d="M519.12,51.36v50.765h13.617V59.585Z" transform="translate(4321.764 932.873)" fill="#4b82c2" fill-rule="evenodd"/>
    <path id="Path_350" data-name="Path 350" d="M545.52,6.36V81.282h11.6V19.416Z" transform="translate(4314.344 945.52)" fill="#4b82c2" fill-rule="evenodd"/>
    <path id="Path_351" data-name="Path 351" d="M567.48,36.72V87h11.906V49.783Z" transform="translate(4308.172 936.987)" fill="#4b82c2" fill-rule="evenodd"/>
    <path id="Path_352" data-name="Path 352" d="M573.567,88.8l-5.054,4.831-5.047,3.12-5.356,2.279-6.535,1.7-3.868.568-3.566.848-4.752,1.136-8.62,3.976-4.163,3.7-4.163,5.4-2.976,5.112-1.186,1.991.891-.856,2.674-2.272,3.566-2.272,3.868-2.559,6.24-2.552,1.783-.568,3.868-.856,3.861-1.136,5.349-1.7,4.759-1.7,2.078-.568,5.651-2.559,2.969-2.272,2.977-3.127,2.38-4.256,1.186-2.559Z" transform="translate(4322 922.35)" fill="#4b82c2" fill-rule="evenodd"/>
    <path id="Path_353" data-name="Path 353" d="M650.24,106.2H610.41l6.837.856,4.163.848,8.915,2.847,4.163,1.136,4.457,1.416,3.271.575,5.946,1.136,2.674.28,5.054.288,8.62-.568,6.241-1.991,4.457-2.559,1.783-1.136,1.193-1.136H661.836l-3.868-.288h-1.783l-2.078-.568-1.783-.568Z" transform="translate(4296.107 917.46)" fill="#4b82c2" fill-rule="evenodd"/>
    <path id="Path_354" data-name="Path 354" d="M613.09,92.76H610.12l-3.271.288-2.969.568-2.682.848L598.229,95.6l-2.38,1.424-2.674,1.424L591.1,99.863l-3.868,3.127-2.969,2.847-1.783,1.984-.6.568,5.054-2.552,4.752-1.711,3.573-1.136,4.752-.568h42.209L638.361,101,634.2,99.015l-4.458-1.7L624.686,95.6l-5.349-1.7-2.976-.568Z" transform="translate(4304.125 921.237)" fill="#4b82c2" fill-rule="evenodd"/>
    <text id="M" transform="translate(4858.916 1046.798)" font-size="14" font-family="Arial-Black, Arial" font-weight="800"><tspan x="0" y="0">M</tspan></text>
    <text id="E" transform="translate(4872.115 1046.798)" font-size="14" font-family="Arial-Black, Arial" font-weight="800"><tspan x="0" y="0">E</tspan></text>
    <text id="T" transform="translate(4882.123 1046.798)" font-size="14" font-family="Arial-Black, Arial" font-weight="800"><tspan x="0" y="0">T</tspan></text>
    <text id="R" transform="translate(4892.318 1046.798)" font-size="14" font-family="Arial-Black, Arial" font-weight="800"><tspan x="0" y="0">R</tspan></text>
    <text id="O" transform="translate(4902.67 1046.798)" font-size="14" font-family="Arial-Black, Arial" font-weight="800"><tspan x="0" y="0">O</tspan></text>
    <text id="MANPOWER_CONSULTANC" data-name="MANPOWER CONSULTANC" transform="translate(4861.454 1057.497)" font-size="7" font-family="Arial-BoldMT, Arial" font-weight="700"><tspan x="0" y="0" letter-spacing="-0.029em">M</tspan><tspan y="0" letter-spacing="-0.07em">A</tspan><tspan y="0" letter-spacing="-0.026em">N</tspan><tspan y="0" letter-spacing="-0.036em">P</tspan><tspan y="0" letter-spacing="-0.027em">O</tspan><tspan y="0" letter-spacing="-0.03em">W</tspan><tspan y="0" letter-spacing="-0.025em">E</tspan><tspan y="0" letter-spacing="-0.037em">R</tspan><tspan y="0" letter-spacing="0.025em"> </tspan><tspan y="0" letter-spacing="-0.037em">C</tspan><tspan y="0" letter-spacing="-0.027em">O</tspan><tspan y="0" letter-spacing="-0.037em">N</tspan><tspan y="0" letter-spacing="-0.036em">S</tspan><tspan y="0" letter-spacing="-0.037em">U</tspan><tspan y="0" letter-spacing="-0.023em">L</tspan><tspan y="0" letter-spacing="-0.034em">T</tspan><tspan y="0" letter-spacing="-0.026em">AN</tspan><tspan y="0">C</tspan></text>
    <text id="Since_2005" data-name="Since 2005" transform="translate(4899.068 1008.334)" font-size="5" font-family="Calibri-Bold, Calibri" font-weight="700"><tspan x="0" y="0" letter-spacing="0.004em">S</tspan><tspan y="0" letter-spacing="-0.006em">i</tspan><tspan y="0">nc</tspan><tspan y="0" letter-spacing="0.003em">e</tspan><tspan y="0" letter-spacing="-0.032em"> </tspan><tspan y="0">2005</tspan></text>
  </g>
</svg>
